<?xml version="1.0" encoding="UTF-8" standalone="no"?>
<!-- Generator: Adobe Illustrator 26.0.3, SVG Export Plug-In . SVG Version: 6.00 Build 0)  -->

<svg
   version="1.0"
   id="katman_1"
   x="0px"
   y="0px"
   viewBox="0 0 646 250"
   xml:space="preserve"
   sodipodi:docname="platform-template.svg"
   width="646"
   height="250"
   inkscape:version="1.4.1 (93de688d07, 2025-03-30)"
   xmlns:inkscape="http://www.inkscape.org/namespaces/inkscape"
   xmlns:sodipodi="http://sodipodi.sourceforge.net/DTD/sodipodi-0.dtd"
   xmlns="http://www.w3.org/2000/svg"
   xmlns:svg="http://www.w3.org/2000/svg"><defs
   id="defs47"><rect
     x="-1581.2111"
     y="822.17932"
     width="158.78058"
     height="29.862198"
     id="rect50" /><rect
     x="-1580.0111"
     y="793.47932"
     width="190.49298"
     height="16.3"
     id="rect47" /><rect
     x="-1581.2111"
     y="822.17932"
     width="158.78058"
     height="29.862198"
     id="rect50-3" /><rect
     x="-1581.2111"
     y="822.17932"
     width="158.78058"
     height="29.862198"
     id="rect50-3-7" /><rect
     x="-1581.2111"
     y="822.17932"
     width="158.78058"
     height="29.862198"
     id="rect50-3-7-1" /></defs><sodipodi:namedview
   id="namedview47"
   pagecolor="#ffffff"
   bordercolor="#000000"
   borderopacity="0.25"
   inkscape:showpageshadow="2"
   inkscape:pageopacity="0.0"
   inkscape:pagecheckerboard="0"
   inkscape:deskcolor="#d1d1d1"
   inkscape:zoom="0.62539668"
   inkscape:cx="225.45691"
   inkscape:cy="257.43661"
   inkscape:window-width="1920"
   inkscape:window-height="1010"
   inkscape:window-x="0"
   inkscape:window-y="0"
   inkscape:window-maximized="1"
   inkscape:current-layer="g47-3-7" />
<style
   type="text/css"
   id="style1">
	.st0{fill:#FFFFFF;}
	.st1{fill:none;stroke:#010202;stroke-width:2.7543;stroke-opacity:0.25;}
	.st2{fill:#010202;}
</style>

<g
   id="g47-3"
   transform="matrix(1.2225695,0,0,1.2225695,-1304.6204,864.75152)"
   inkscape:label="under-use">
	
	
	
	
	
	
	
	
	
	
	
	
	
	
	
	
	
	
	
	
	
	
	
	
	
	
	
	
	
	
	
	
	
	
	
	
	
	
	
	
	
	
	
	
	
	
	
<path
   class="st0"
   d="m -643.4,8 h 314 c 39.6,0 71.6,32.1 71.6,71.6 v 0 c 0,39.6 -32.1,71.6 -71.6,71.6 h -314 c -39.6,0 -71.6,-32.1 -71.6,-71.6 v 0 C -715,40.1 -682.9,8 -643.4,8 Z"
   id="path1-5"
   inkscape:label="background"
   style="fill:#000000;fill-opacity:1"
   transform="translate(1817.7111,-684.67932)" /><path
   class="st1"
   d="m -643.4,9.4 h 314 c 38.8,0 70.2,31.4 70.2,70.2 v 0 c 0,38.8 -31.4,70.2 -70.2,70.2 h -314 c -38.8,0 -70.2,-31.4 -70.2,-70.2 v 0 c 0,-38.8 31.4,-70.2 70.2,-70.2 z"
   id="path2-6"
   inkscape:label="border"
   style="fill:none;stroke:#010202;stroke-width:2.7543;stroke-opacity:0.25"
   transform="translate(1817.7111,-684.67932)" /><path
   class="st2"
   d="m -571.6,77.6 c -0.1,-8.7 7.6,-12.9 7.9,-13.1 -4.3,-5.9 -11.1,-6.7 -13.4,-6.8 -5.6,-0.6 -11.1,3.2 -14,3.2 -2.9,0 -7.4,-3.1 -12.1,-3 -6.1,0.1 -11.9,3.4 -15,8.6 -6.5,10.5 -1.7,26 4.6,34.5 3.1,4.2 6.7,8.8 11.5,8.7 4.7,-0.2 6.4,-2.8 12,-2.8 5.6,0 7.2,2.8 12.1,2.7 5,-0.1 8.2,-4.2 11.2,-8.4 3.6,-4.8 5,-9.5 5.1,-9.7 -0.2,-0.1 -9.8,-3.5 -9.9,-13.9 z m -9.2,-25.4 c 2.5,-2.9 4.2,-6.9 3.7,-11 -3.6,0.1 -8.2,2.3 -10.8,5.2 -2.3,2.5 -4.4,6.7 -3.8,10.6 4.1,0.3 8.3,-2 10.9,-4.8 z"
   id="path24-2"
   inkscape:label="icon"
   style="fill:#ffffff;fill-opacity:1"
   transform="translate(1817.7111,-684.67932)" /><text
   xml:space="preserve"
   style="font-style:normal;font-variant:normal;font-weight:bold;font-stretch:normal;font-size:22.0745px;font-family:MBEmpireW01-Book;-inkscape-font-specification:'MBEmpireW01-Book Bold';text-align:start;writing-mode:lr-tb;direction:ltr;text-anchor:start;fill:#ffffff;stroke-width:1.83954;fill-opacity:1"
   x="-550.84125"
   y="62.976608"
   id="text48-9"
   inkscape:label="sub text"
   transform="translate(1817.7111,-684.67932)"><tspan
     sodipodi:role="line"
     id="tspan48-1"
     x="-550.84125"
     y="62.976608"
     style="font-style:normal;font-variant:normal;font-weight:bold;font-stretch:normal;font-family:MBEmpireW01-Book;-inkscape-font-specification:'MBEmpireW01-Book Bold';stroke-width:1.83954;fill:#ffffff;fill-opacity:1">Download on the</tspan></text><text
   xml:space="preserve"
   transform="matrix(1.9356882,0,0,1.9356882,4328.1942,-2211.1874)"
   id="text50-2"
   style="font-style:normal;font-variant:normal;font-weight:normal;font-stretch:normal;font-size:24px;font-family:Cantarell;-inkscape-font-specification:Cantarell;text-align:start;writing-mode:lr-tb;direction:ltr;white-space:pre;shape-inside:url(#rect50-3-7);shape-padding:0;display:inline;fill:#ffffff;fill-opacity:1"
   inkscape:label="platform text"><tspan
     x="-1581.2109"
     y="844.24945"
     id="tspan2"><tspan
       style="font-family:MBEmpireW01-Bold;-inkscape-font-specification:MBEmpireW01-Bold"
       id="tspan1">App Store</tspan></tspan></text></g><g
   id="g47-3-7"
   transform="matrix(1.2225695,0,0,1.2225695,-2208.141,520.2875)"
   inkscape:label="main"
   sodipodi:insensitive="true">
	
	
	
	
	
	
	
	
	
	
	
	
	
	
	
	
	
	
	
	
	
	
	
	
	
	
	
	
	
	
	
	
	
	
	
	
	
	
	
	
	
	
	
	
	
	
	
<path
   class="st0"
   d="m -643.4,8 h 314 c 39.6,0 71.6,32.1 71.6,71.6 v 0 c 0,39.6 -32.1,71.6 -71.6,71.6 h -314 c -39.6,0 -71.6,-32.1 -71.6,-71.6 v 0 C -715,40.1 -682.9,8 -643.4,8 Z"
   id="path1-5-9"
   inkscape:label="background"
   style="fill:#000000;fill-opacity:1"
   transform="translate(1817.7111,-684.67932)" /><path
   class="st1"
   d="m -643.4,9.4 h 314 c 38.8,0 70.2,31.4 70.2,70.2 v 0 c 0,38.8 -31.4,70.2 -70.2,70.2 h -314 c -38.8,0 -70.2,-31.4 -70.2,-70.2 v 0 c 0,-38.8 31.4,-70.2 70.2,-70.2 z"
   id="path2-6-2"
   inkscape:label="border"
   style="fill:none;stroke:#010202;stroke-width:2.7543;stroke-opacity:0.25"
   transform="translate(1817.7111,-684.67932)" /><path
   class="st2"
   d="m -571.6,77.6 c -0.1,-8.7 7.6,-12.9 7.9,-13.1 -4.3,-5.9 -11.1,-6.7 -13.4,-6.8 -5.6,-0.6 -11.1,3.2 -14,3.2 -2.9,0 -7.4,-3.1 -12.1,-3 -6.1,0.1 -11.9,3.4 -15,8.6 -6.5,10.5 -1.7,26 4.6,34.5 3.1,4.2 6.7,8.8 11.5,8.7 4.7,-0.2 6.4,-2.8 12,-2.8 5.6,0 7.2,2.8 12.1,2.7 5,-0.1 8.2,-4.2 11.2,-8.4 3.6,-4.8 5,-9.5 5.1,-9.7 -0.2,-0.1 -9.8,-3.5 -9.9,-13.9 z m -9.2,-25.4 c 2.5,-2.9 4.2,-6.9 3.7,-11 -3.6,0.1 -8.2,2.3 -10.8,5.2 -2.3,2.5 -4.4,6.7 -3.8,10.6 4.1,0.3 8.3,-2 10.9,-4.8 z"
   id="path24-2-0"
   inkscape:label="icon"
   style="fill:#ffffff;fill-opacity:1"
   transform="translate(1817.7111,-684.67932)" /><text
   xml:space="preserve"
   style="font-style:normal;font-variant:normal;font-weight:normal;font-stretch:normal;font-size:22.0745px;font-family:MBEmpireW01-Book;-inkscape-font-specification:MBEmpireW01-Book;text-align:start;writing-mode:lr-tb;direction:ltr;text-anchor:start;fill:#ffffff;fill-opacity:1;stroke-width:1.83954"
   x="-550.84125"
   y="62.976608"
   id="text48-9-2"
   inkscape:label="sub text"
   transform="translate(1817.7111,-684.67932)"><tspan
     sodipodi:role="line"
     id="tspan48-1-3"
     x="-550.84125"
     y="62.976608"
     style="font-style:normal;font-variant:normal;font-weight:normal;font-stretch:normal;font-family:MBEmpireW01-Book;-inkscape-font-specification:MBEmpireW01-Book;fill:#ffffff;fill-opacity:1;stroke-width:1.83954">Download on the</tspan></text><text
   xml:space="preserve"
   transform="matrix(1.9356882,0,0,1.9356882,4328.1942,-2211.1874)"
   id="text50-2-7"
   style="font-style:normal;font-variant:normal;font-weight:normal;font-stretch:normal;font-size:24px;font-family:Cantarell;-inkscape-font-specification:Cantarell;text-align:start;writing-mode:lr-tb;direction:ltr;white-space:pre;shape-inside:url(#rect50-3-7-1);shape-padding:0;display:inline;fill:#ffffff;fill-opacity:1"
   inkscape:label="platform text"><tspan
     x="-1581.2109"
     y="844.24945"
     id="tspan4"><tspan
       style="font-family:MBEmpireW01-Bold;-inkscape-font-specification:MBEmpireW01-Bold"
       id="tspan3">App Store</tspan></tspan></text></g></svg>
