<?xml version="1.0" encoding="UTF-8" standalone="no"?>
<!-- Uploaded to: SVG Repo, www.svgrepo.com, Generator: SVG Repo Mixer Tools -->

<svg
   width="500"
   height="500"
   viewBox="0 0 15 15"
   fill="none"
   version="1.1"
   id="svg5"
   sodipodi:docname="chart-bubble-svgrepo-com.svg"
   inkscape:export-filename="chart-bubble-svgrepo-com.png"
   inkscape:export-xdpi="96"
   inkscape:export-ydpi="96"
   inkscape:version="1.4.2 (ebf0e940d0, 2025-05-08)"
   xmlns:inkscape="http://www.inkscape.org/namespaces/inkscape"
   xmlns:sodipodi="http://sodipodi.sourceforge.net/DTD/sodipodi-0.dtd"
   xmlns="http://www.w3.org/2000/svg"
   xmlns:svg="http://www.w3.org/2000/svg">
  <defs
     id="defs5" />
  <sodipodi:namedview
     id="namedview5"
     pagecolor="#ffffff"
     bordercolor="#000000"
     borderopacity="0.25"
     inkscape:showpageshadow="2"
     inkscape:pageopacity="0.0"
     inkscape:pagecheckerboard="0"
     inkscape:deskcolor="#d1d1d1"
     inkscape:export-bgcolor="#ffffffff"
     inkscape:zoom="1.410678"
     inkscape:cx="175.80199"
     inkscape:cy="277.88056"
     inkscape:window-width="1920"
     inkscape:window-height="1009"
     inkscape:window-x="0"
     inkscape:window-y="0"
     inkscape:window-maximized="1"
     inkscape:current-layer="svg5" />
  <g
     id="g5"
     transform="matrix(0.48832753,0,0,0.48832753,1.4540649,1.6400696)">
    <path
       d="m 21,8 c 0,2.7614 -2.2386,5 -5,5 -2.7614,0 -5,-2.2386 -5,-5 0,-2.76142 2.2386,-5 5,-5 2.7614,0 5,2.23858 5,5 z"
       stroke="#323232"
       stroke-width="2"
       id="path1"
       style="stroke:#000000;stroke-opacity:1" />
    <path
       d="M 10,15.5 C 10,17.433 8.433,19 6.5,19 4.567,19 3,17.433 3,15.5 3,13.567 4.567,12 6.5,12 8.433,12 10,13.567 10,15.5 Z"
       stroke="#323232"
       stroke-width="2"
       id="path2"
       style="stroke:#000000;stroke-opacity:1" />
    <path
       d="M 19,18.5 C 19,19.8807 17.8807,21 16.5,21 15.1193,21 14,19.8807 14,18.5 14,17.1193 15.1193,16 16.5,16 c 1.3807,0 2.5,1.1193 2.5,2.5 z"
       stroke="#323232"
       stroke-width="2"
       id="path3"
       style="stroke:#000000;stroke-opacity:1" />
  </g>
</svg>
